<?xml version="1.0" encoding="UTF-8"?>
<svg xmlns="http://www.w3.org/2000/svg" xmlns:xlink="http://www.w3.org/1999/xlink" width="100px" height="55px" viewBox="0 0 100 55" version="1.1">
<g id="surface1">
<path style=" stroke:none;fill-rule:nonzero;fill:rgb(0%,0%,0%);fill-opacity:1;" d="M 98.261719 19.042969 C 98.578125 19.378906 98.761719 19.828125 98.761719 20.308594 C 98.761719 20.808594 98.582031 21.246094 98.253906 21.578125 C 97.910156 21.925781 97.476562 22.117188 97.023438 22.117188 C 96.558594 22.117188 96.132812 21.925781 95.800781 21.574219 C 95.472656 21.226562 95.296875 20.789062 95.296875 20.316406 C 95.296875 19.839844 95.484375 19.378906 95.820312 19.019531 C 96.136719 18.6875 96.554688 18.507812 97.023438 18.507812 C 97.496094 18.503906 97.929688 18.691406 98.261719 19.042969 M 98.101562 19.207031 C 97.8125 18.898438 97.441406 18.738281 97.027344 18.738281 C 96.621094 18.738281 96.25 18.894531 95.976562 19.1875 C 95.683594 19.5 95.519531 19.898438 95.519531 20.308594 C 95.519531 20.71875 95.679688 21.109375 95.960938 21.40625 C 96.246094 21.707031 96.625 21.871094 97.011719 21.871094 C 97.421875 21.871094 97.792969 21.710938 98.09375 21.410156 C 98.375 21.125 98.527344 20.742188 98.527344 20.324219 C 98.527344 19.890625 98.382812 19.5 98.101562 19.207031 M 97.890625 19.8125 C 97.890625 20.101562 97.726562 20.300781 97.445312 20.363281 L 97.882812 21.292969 L 97.46875 21.292969 L 97.066406 20.421875 L 96.699219 20.421875 L 96.699219 21.292969 L 96.332031 21.292969 L 96.332031 19.25 L 97.070312 19.25 C 97.621094 19.25 97.890625 19.441406 97.890625 19.8125 M 96.699219 19.503906 L 96.699219 20.175781 L 97.011719 20.175781 C 97.347656 20.175781 97.511719 20.09375 97.511719 19.851562 C 97.511719 19.605469 97.351562 19.503906 97.003906 19.503906 Z M 96.699219 19.503906 "/>
<path style=" stroke:none;fill-rule:nonzero;fill:rgb(0%,0%,0%);fill-opacity:1;" d="M 48.066406 11 C 48.035156 11.007812 48 11.023438 47.960938 11.058594 C 47.960938 11.0625 47.957031 11.0625 47.957031 11.0625 L 43.9375 14.933594 C 43.898438 14.96875 43.898438 15.023438 43.917969 15.066406 C 43.9375 15.113281 43.992188 15.132812 44.039062 15.125 L 48.109375 14.171875 L 52.105469 15.121094 C 52.152344 15.132812 52.203125 15.105469 52.226562 15.0625 C 52.25 15.023438 52.242188 14.964844 52.203125 14.929688 L 48.199219 11.066406 C 48.167969 11.03125 48.132812 11.007812 48.101562 11.003906 C 48.089844 11 48.078125 11 48.066406 11 "/>
<path style=" stroke:none;fill-rule:nonzero;fill:rgb(0%,0%,0%);fill-opacity:1;" d="M 42.820312 16.050781 C 42.792969 16.050781 42.765625 16.0625 42.746094 16.082031 L 27.097656 31.160156 C 27.054688 31.195312 27.027344 31.257812 27.027344 31.324219 C 27.027344 31.355469 27.03125 31.382812 27.042969 31.410156 C 27.074219 31.496094 27.160156 31.550781 27.25 31.550781 L 34.117188 31.550781 C 34.167969 31.550781 34.234375 31.523438 34.269531 31.503906 C 34.277344 31.5 34.28125 31.496094 34.285156 31.488281 L 38.324219 27.585938 L 47.546875 27.675781 C 47.746094 27.675781 47.824219 27.632812 47.851562 27.617188 C 47.855469 27.609375 47.863281 27.609375 47.863281 27.605469 L 51.269531 24.34375 C 51.300781 24.3125 51.3125 24.261719 51.296875 24.222656 C 51.277344 24.179688 51.238281 24.152344 51.1875 24.152344 L 41.890625 24.148438 L 45.664062 20.5 L 50.425781 20.5 L 62.066406 31.710938 C 62.261719 31.894531 62.476562 32.117188 62.730469 32.375 C 64.007812 33.675781 65.9375 35.640625 68.644531 37.316406 C 70.136719 38.238281 71.6875 38.957031 73.253906 39.449219 C 75.105469 40.027344 77.03125 40.308594 78.972656 40.28125 C 85.722656 40.199219 89.105469 37.375 91.761719 34.335938 C 94.925781 30.707031 96.074219 24.480469 96.089844 24.417969 L 96.089844 24.398438 L 96.09375 24.390625 C 96.09375 24.332031 96.074219 24.28125 96.03125 24.238281 C 95.992188 24.191406 95.933594 24.167969 95.867188 24.167969 L 71.796875 24.167969 C 71.605469 24.167969 71.539062 24.1875 71.503906 24.203125 C 71.46875 24.21875 71.445312 24.238281 71.441406 24.277344 L 71.4375 24.304688 C 71.4375 24.363281 71.46875 24.433594 71.519531 24.484375 C 71.910156 24.875 74.578125 27.480469 74.824219 27.636719 C 74.832031 27.640625 74.835938 27.644531 74.847656 27.644531 C 74.867188 27.65625 74.894531 27.660156 74.921875 27.660156 L 87.082031 27.660156 C 87.210938 27.660156 87.246094 27.683594 87.261719 27.699219 C 87.300781 27.75 87.304688 27.871094 87.304688 27.964844 C 87.304688 29.84375 86.460938 31.582031 84.9375 32.867188 C 83.246094 34.289062 80.859375 35.039062 78.03125 35.039062 C 72.414062 35.039062 68.78125 31.210938 66.375 28.675781 C 65.964844 28.242188 65.578125 27.832031 65.230469 27.5 C 65.230469 27.503906 65.234375 27.507812 65.238281 27.511719 C 65.210938 27.480469 65.117188 27.394531 64.746094 27.035156 L 53.386719 16.070312 C 53.367188 16.050781 53.339844 16.039062 53.3125 16.039062 L 42.820312 16.039062 Z M 42.820312 16.050781 "/>
<path style=" stroke:none;fill-rule:nonzero;fill:rgb(0%,0%,0%);fill-opacity:1;" d="M 49.167969 0.0859375 C 42.882812 0.457031 37.953125 3.308594 30.316406 10.996094 L 30.3125 11 C 29.136719 12.117188 1.421875 38.496094 -0.0546875 39.851562 C -0.0976562 39.894531 -0.125 39.953125 -0.125 40.015625 C -0.125 40.0625 -0.109375 40.101562 -0.0898438 40.132812 C -0.0351562 40.226562 0.078125 40.265625 0.175781 40.226562 C 0.175781 40.226562 0.179688 40.226562 0.179688 40.226562 L 0.203125 40.214844 C 0.804688 39.953125 3 39.035156 5.890625 38.195312 C 7.683594 37.671875 9.410156 37.277344 11.011719 37.019531 C 13.003906 36.699219 14.824219 36.59375 16.425781 36.703125 L 17.605469 36.785156 C 20.839844 36.996094 22.796875 37.125 26.472656 37.941406 L 27.230469 38.109375 C 29.835938 38.691406 32.621094 39.292969 35.390625 39.707031 C 38.566406 40.171875 41.285156 40.324219 43.714844 40.164062 C 45.167969 40.070312 46.542969 39.878906 47.804688 39.59375 C 49.828125 39.144531 51.925781 38.339844 54.035156 37.214844 C 55.125 36.632812 56.167969 35.972656 57.128906 35.246094 C 58.109375 34.484375 59.101562 33.546875 60.171875 32.375 C 60.210938 32.324219 60.207031 32.257812 60.164062 32.21875 L 55.945312 28.121094 C 55.902344 28.082031 55.835938 28.082031 55.792969 28.117188 C 53.921875 29.921875 51.996094 31.4375 49.90625 32.765625 C 48.308594 33.78125 46.625 34.449219 44.453125 34.933594 C 40.386719 35.839844 36.230469 35.320312 33.0625 34.765625 C 30.175781 34.265625 27.3125 33.511719 24.546875 32.777344 C 24.546875 32.777344 17.851562 30.933594 17.851562 30.933594 C 17.851562 30.933594 38.605469 10.925781 38.804688 10.734375 L 39.125 10.480469 C 42.566406 7.730469 46.132812 4.882812 50.902344 4.421875 C 52.550781 4.261719 54.1875 4.363281 55.789062 4.734375 C 57.066406 5.03125 58.320312 5.492188 59.515625 6.117188 C 61.519531 7.160156 62.695312 8.316406 62.828125 8.445312 C 62.863281 8.480469 62.921875 8.488281 62.964844 8.457031 C 63.007812 8.433594 63.03125 8.378906 63.011719 8.328125 C 62.925781 8.082031 62.109375 5.828125 59.917969 3.710938 C 58.695312 2.535156 57.28125 1.632812 55.703125 1.015625 C 53.75 0.257812 51.554688 -0.0546875 49.167969 0.0859375 "/>
<path style=" stroke:none;fill-rule:nonzero;fill:rgb(0%,0%,0%);fill-opacity:1;" d="M 76.558594 11.296875 C 73.183594 11.785156 70.410156 12.96875 67.820312 15.015625 C 65.503906 16.839844 63.621094 19.132812 61.628906 21.554688 C 61.59375 21.605469 61.59375 21.667969 61.632812 21.707031 L 65.503906 25.46875 C 65.527344 25.492188 65.554688 25.5 65.585938 25.5 C 65.617188 25.496094 65.648438 25.480469 65.664062 25.457031 L 65.746094 25.351562 C 67.34375 23.308594 69.066406 21.175781 71.011719 19.53125 C 72.03125 18.667969 73.035156 18.003906 74.082031 17.492188 C 75.242188 16.925781 76.425781 16.558594 77.695312 16.375 C 79.941406 16.046875 82.148438 16.152344 84.261719 16.695312 C 85.953125 17.125 87.582031 17.835938 89.109375 18.796875 C 91.765625 20.480469 93.164062 22.335938 93.175781 22.355469 L 93.175781 22.359375 C 93.179688 22.363281 93.179688 22.363281 93.179688 22.363281 C 93.1875 22.371094 93.195312 22.378906 93.199219 22.382812 C 93.234375 22.40625 93.28125 22.429688 93.3125 22.429688 C 93.367188 22.4375 93.414062 22.40625 93.433594 22.359375 C 93.441406 22.335938 93.445312 22.304688 93.445312 22.269531 L 93.445312 16.332031 C 93.445312 16.277344 93.425781 16.230469 93.390625 16.183594 C 93.152344 15.921875 87.460938 9.722656 76.558594 11.296875 M 93.347656 22.222656 Z M 93.347656 22.222656 "/>
<path style=" stroke:none;fill-rule:nonzero;fill:rgb(0%,0%,0%);fill-opacity:1;" d="M 19.703125 45.664062 C 20.136719 45.789062 20.386719 45.855469 20.453125 45.855469 C 20.621094 45.855469 20.734375 45.824219 20.8125 45.757812 C 20.882812 45.691406 20.9375 45.597656 20.988281 45.476562 L 21.242188 45.476562 L 21.335938 47.933594 L 21.066406 47.933594 C 20.828125 47.367188 20.582031 46.945312 20.332031 46.671875 C 19.871094 46.183594 19.277344 45.9375 18.546875 45.9375 C 17.800781 45.9375 17.148438 46.222656 16.582031 46.789062 C 16.019531 47.359375 15.734375 48.292969 15.734375 49.597656 C 15.734375 50.675781 16.019531 51.515625 16.582031 52.117188 C 17.144531 52.71875 17.835938 53.027344 18.664062 53.027344 C 18.804688 53.027344 18.96875 53.011719 19.160156 52.984375 C 19.347656 52.960938 19.523438 52.917969 19.695312 52.863281 C 19.96875 52.769531 20.144531 52.695312 20.210938 52.628906 C 20.277344 52.558594 20.3125 52.464844 20.3125 52.335938 L 20.3125 50.472656 C 20.3125 50.019531 20.246094 49.738281 20.125 49.628906 C 19.996094 49.519531 19.71875 49.445312 19.296875 49.421875 L 19.296875 49.203125 L 22.253906 49.203125 L 22.253906 49.421875 C 21.96875 49.4375 21.78125 49.488281 21.683594 49.5625 C 21.523438 49.683594 21.445312 49.933594 21.445312 50.316406 L 21.445312 52.613281 C 21.445312 52.75 21.109375 52.933594 20.445312 53.160156 C 19.78125 53.390625 19.136719 53.5 18.523438 53.5 C 17.386719 53.5 16.4375 53.167969 15.65625 52.503906 C 14.796875 51.765625 14.371094 50.78125 14.371094 49.546875 C 14.371094 48.460938 14.714844 47.53125 15.394531 46.753906 C 16.148438 45.898438 17.144531 45.472656 18.386719 45.472656 C 18.828125 45.472656 19.273438 45.535156 19.703125 45.664062 "/>
<path style=" stroke:none;fill-rule:nonzero;fill:rgb(0%,0%,0%);fill-opacity:1;" d="M 29.515625 45.609375 L 29.515625 45.828125 C 29.070312 45.859375 28.78125 45.933594 28.648438 46.054688 C 28.515625 46.171875 28.449219 46.449219 28.449219 46.878906 L 28.449219 50.617188 C 28.449219 51.230469 28.53125 51.707031 28.699219 52.050781 C 29.007812 52.671875 29.59375 52.984375 30.460938 52.984375 C 31.410156 52.984375 32.042969 52.667969 32.371094 52.027344 C 32.550781 51.667969 32.644531 51.117188 32.644531 50.375 L 32.644531 47.332031 C 32.644531 46.695312 32.566406 46.296875 32.417969 46.136719 C 32.265625 45.972656 31.976562 45.875 31.554688 45.832031 L 31.554688 45.613281 L 34.242188 45.613281 L 34.242188 45.832031 C 33.792969 45.878906 33.496094 45.992188 33.359375 46.160156 C 33.226562 46.328125 33.152344 46.71875 33.152344 47.332031 L 33.152344 50.375 C 33.152344 51.179688 33.03125 51.8125 32.785156 52.261719 C 32.332031 53.097656 31.472656 53.515625 30.203125 53.515625 C 28.945312 53.515625 28.09375 53.101562 27.644531 52.28125 C 27.394531 51.84375 27.273438 51.257812 27.273438 50.535156 L 27.273438 46.882812 C 27.273438 46.457031 27.207031 46.1875 27.078125 46.066406 C 26.953125 45.945312 26.664062 45.871094 26.230469 45.835938 L 26.230469 45.617188 L 29.515625 45.617188 Z M 29.515625 45.609375 "/>
<path style=" stroke:none;fill-rule:nonzero;fill:rgb(0%,0%,0%);fill-opacity:1;" d="M 38.230469 53.125 C 38.699219 53.089844 39.007812 53.015625 39.148438 52.910156 C 39.285156 52.804688 39.359375 52.523438 39.359375 52.074219 L 39.359375 46.875 C 39.359375 46.445312 39.289062 46.167969 39.148438 46.042969 C 39.007812 45.921875 38.703125 45.847656 38.230469 45.824219 L 38.230469 45.605469 L 41.664062 45.605469 L 41.664062 45.824219 C 41.195312 45.84375 40.886719 45.921875 40.75 46.042969 C 40.609375 46.167969 40.539062 46.445312 40.539062 46.875 L 40.539062 52.074219 C 40.539062 52.523438 40.609375 52.804688 40.75 52.910156 C 40.886719 53.015625 41.195312 53.089844 41.664062 53.125 L 41.664062 53.339844 L 38.230469 53.339844 Z M 38.230469 53.125 "/>
<path style=" stroke:none;fill-rule:nonzero;fill:rgb(0%,0%,0%);fill-opacity:1;" d="M 45.730469 45.609375 L 52.289062 45.609375 L 52.351562 47.597656 L 52.074219 47.597656 C 51.9375 46.972656 51.765625 46.566406 51.558594 46.378906 C 51.347656 46.191406 50.90625 46.097656 50.238281 46.097656 L 49.589844 46.097656 L 49.589844 52.078125 C 49.589844 52.53125 49.660156 52.808594 49.800781 52.914062 C 49.941406 53.023438 50.246094 53.09375 50.71875 53.128906 L 50.71875 53.34375 L 47.335938 53.34375 L 47.335938 53.128906 C 47.824219 53.089844 48.132812 53.007812 48.25 52.882812 C 48.375 52.761719 48.433594 52.445312 48.433594 51.945312 L 48.433594 46.101562 L 47.78125 46.101562 C 47.140625 46.101562 46.699219 46.195312 46.472656 46.382812 C 46.242188 46.566406 46.066406 46.976562 45.945312 47.601562 L 45.660156 47.601562 Z M 45.730469 45.609375 "/>
<path style=" stroke:none;fill-rule:nonzero;fill:rgb(0%,0%,0%);fill-opacity:1;" d="M 55.4375 53.339844 L 55.4375 53.125 C 55.734375 53.089844 55.960938 52.976562 56.105469 52.785156 C 56.253906 52.597656 56.511719 52.066406 56.871094 51.207031 L 59.289062 45.472656 L 59.523438 45.472656 L 62.414062 52.09375 C 62.609375 52.535156 62.761719 52.804688 62.875 52.910156 C 62.992188 53.011719 63.183594 53.082031 63.457031 53.125 L 63.457031 53.339844 L 60.507812 53.339844 L 60.507812 53.125 C 60.847656 53.09375 61.0625 53.058594 61.164062 53.011719 C 61.261719 52.96875 61.3125 52.863281 61.3125 52.6875 C 61.3125 52.636719 61.296875 52.535156 61.253906 52.386719 C 61.21875 52.242188 61.164062 52.089844 61.097656 51.933594 L 60.632812 50.8125 L 57.578125 50.8125 C 57.277344 51.574219 57.097656 52.042969 57.035156 52.210938 C 56.976562 52.378906 56.945312 52.511719 56.945312 52.609375 C 56.945312 52.804688 57.027344 52.941406 57.183594 53.015625 C 57.28125 53.0625 57.46875 53.097656 57.734375 53.121094 L 57.734375 53.335938 L 55.4375 53.335938 Z M 60.4375 50.339844 L 59.105469 47.121094 L 57.769531 50.339844 Z M 60.4375 50.339844 "/>
<path style=" stroke:none;fill-rule:nonzero;fill:rgb(0%,0%,0%);fill-opacity:1;" d="M 67.371094 53.125 C 67.816406 53.082031 68.097656 52.996094 68.203125 52.863281 C 68.3125 52.730469 68.367188 52.417969 68.367188 51.933594 L 68.367188 46.875 C 68.367188 46.460938 68.304688 46.195312 68.179688 46.066406 C 68.058594 45.9375 67.785156 45.859375 67.367188 45.828125 L 67.367188 45.609375 L 70.578125 45.609375 C 71.246094 45.609375 71.800781 45.695312 72.246094 45.867188 C 73.09375 46.191406 73.515625 46.785156 73.515625 47.652344 C 73.515625 48.230469 73.324219 48.679688 72.953125 48.988281 C 72.578125 49.300781 72.066406 49.507812 71.417969 49.605469 L 73.8125 52.574219 C 73.960938 52.753906 74.105469 52.890625 74.25 52.96875 C 74.402344 53.054688 74.585938 53.105469 74.820312 53.128906 L 74.820312 53.34375 L 72.945312 53.34375 L 70.042969 49.742188 L 69.53125 49.773438 L 69.53125 52.078125 C 69.53125 52.507812 69.597656 52.78125 69.726562 52.898438 C 69.859375 53.011719 70.140625 53.089844 70.582031 53.128906 L 70.582031 53.34375 L 67.355469 53.34375 L 67.355469 53.125 Z M 71.339844 49.074219 C 71.957031 48.820312 72.265625 48.34375 72.265625 47.636719 C 72.265625 46.964844 71.988281 46.5 71.4375 46.253906 C 71.140625 46.121094 70.753906 46.054688 70.265625 46.054688 C 69.9375 46.054688 69.734375 46.082031 69.660156 46.125 C 69.585938 46.171875 69.550781 46.285156 69.550781 46.457031 L 69.550781 49.332031 C 70.382812 49.304688 70.980469 49.21875 71.339844 49.074219 "/>
<path style=" stroke:none;fill-rule:nonzero;fill:rgb(0%,0%,0%);fill-opacity:1;" d="M 79.332031 50.992188 C 79.523438 51.515625 79.757812 51.933594 80.023438 52.246094 C 80.480469 52.792969 81.054688 53.0625 81.734375 53.0625 C 82.105469 53.0625 82.421875 52.941406 82.695312 52.707031 C 82.964844 52.472656 83.101562 52.144531 83.101562 51.71875 C 83.101562 51.335938 82.964844 51.007812 82.695312 50.722656 C 82.519531 50.546875 82.144531 50.277344 81.574219 49.921875 L 80.582031 49.300781 C 80.28125 49.109375 80.042969 48.917969 79.867188 48.722656 C 79.542969 48.355469 79.375 47.949219 79.375 47.503906 C 79.375 46.914062 79.566406 46.421875 79.960938 46.03125 C 80.347656 45.640625 80.863281 45.441406 81.507812 45.441406 C 81.769531 45.441406 82.089844 45.507812 82.460938 45.640625 C 82.835938 45.769531 83.046875 45.835938 83.101562 45.835938 C 83.246094 45.835938 83.34375 45.800781 83.394531 45.734375 C 83.449219 45.667969 83.492188 45.570312 83.523438 45.441406 L 83.761719 45.441406 L 84.019531 47.929688 L 83.738281 47.929688 C 83.550781 47.179688 83.246094 46.65625 82.832031 46.359375 C 82.414062 46.0625 82.003906 45.917969 81.59375 45.917969 C 81.277344 45.917969 81 46.007812 80.761719 46.195312 C 80.523438 46.382812 80.410156 46.644531 80.410156 46.980469 C 80.410156 47.28125 80.503906 47.539062 80.679688 47.753906 C 80.859375 47.96875 81.140625 48.195312 81.523438 48.429688 L 82.542969 49.066406 C 83.179688 49.460938 83.628906 49.824219 83.890625 50.15625 C 84.148438 50.488281 84.277344 50.886719 84.277344 51.339844 C 84.277344 51.953125 84.046875 52.464844 83.589844 52.875 C 83.132812 53.285156 82.546875 53.492188 81.832031 53.492188 C 81.472656 53.492188 81.097656 53.425781 80.710938 53.289062 C 80.316406 53.15625 80.09375 53.082031 80.035156 53.082031 C 79.898438 53.082031 79.804688 53.125 79.761719 53.207031 C 79.714844 53.292969 79.683594 53.382812 79.667969 53.472656 L 79.414062 53.472656 L 79.070312 50.984375 L 79.332031 50.984375 Z M 79.332031 50.992188 "/>
</g>
</svg>
