<?xml version="1.0" encoding="UTF-8"?>
<svg xmlns="http://www.w3.org/2000/svg" xmlns:xlink="http://www.w3.org/1999/xlink" width="100px" height="45px" viewBox="0 0 99 45" version="1.1">
<g id="surface1">
<path style=" stroke:none;fill-rule:evenodd;fill:rgb(0%,0%,0%);fill-opacity:1;" d="M 16.566406 10.738281 C 16.917969 14.113281 20.660156 17.722656 24.210938 16.601562 C 24.863281 16.394531 25.6875 16.097656 26.273438 15.753906 C 30.898438 13.03125 30.351562 5.503906 25.203125 4.023438 C 16.949219 1.652344 8.953125 12.992188 7.085938 19.304688 C 5.160156 25.824219 9.300781 33.140625 15.570312 35.199219 C 20.742188 36.898438 27.429688 33.753906 30.320312 31.570312 C 31.417969 30.742188 32.140625 29.484375 33.152344 28.714844 C 33.785156 28.234375 34.609375 27.816406 35.367188 27.480469 C 35.582031 27.382812 35.796875 27.449219 35.976562 27.324219 C 36.277344 27.117188 37.152344 25.15625 37.429688 24.703125 C 38.902344 22.242188 39.773438 20.558594 42.78125 19.535156 C 43.308594 19.351562 44.621094 18.65625 45.375 19.222656 C 45.894531 19.664062 44.46875 20.484375 44.230469 20.765625 C 42.242188 23.132812 41.441406 25.238281 40.640625 28.25 C 39.769531 31.507812 42.101562 36.570312 45.453125 37.355469 C 46.871094 37.691406 48.457031 36.6875 49.121094 36.199219 C 50.683594 35.054688 52.21875 33.011719 53.023438 31.105469 C 53.667969 29.570312 53.78125 26.507812 53.023438 25.089844 C 52.414062 23.957031 50.550781 22.558594 48.820312 23.542969 C 46.921875 24.625 45.425781 26.796875 44.234375 28.019531 C 43.195312 28.023438 42.921875 26.996094 43.261719 26.0625 C 43.566406 25.238281 44.164062 24.609375 44.691406 24.007812 C 46.304688 22.175781 48.621094 20.035156 51.035156 19.070312 C 51.996094 18.683594 54.238281 18.175781 55.46875 18.605469 C 58.722656 19.601562 58.78125 27.722656 57.917969 30.257812 C 56.289062 36.980469 49.132812 47.976562 40.644531 43.375 C 37.09375 41.453125 35.578125 36.574219 35.214844 31.492188 C 35.042969 31.398438 35.042969 31.367188 34.757812 31.335938 C 34.484375 31.753906 34.199219 32.128906 33.914062 32.574219 C 31.242188 36.800781 28.640625 41.21875 23.824219 43.300781 C 19.640625 45.105469 13.824219 45.554688 9.457031 44.226562 C -0.078125 41.320312 -1.328125 29.199219 1.355469 21.15625 C 4.128906 12.84375 9.886719 6.113281 17.175781 2.328125 C 24.066406 -1.3125 34.554688 -1.378906 37.277344 7.191406 C 38.519531 11.089844 36.96875 17.554688 35.367188 20.078125 C 34.804688 20.96875 33.433594 22.289062 32.617188 22.855469 C 27.695312 26.269531 20.261719 27.53125 14.578125 25.789062 C 13.746094 25.535156 12.195312 25.425781 12.132812 24.476562 C 13.109375 20.480469 15.121094 15.292969 16.179688 10.742188 C 16.308594 10.738281 16.4375 10.738281 16.566406 10.738281 Z M 16.566406 10.738281 "/>
<path style=" stroke:none;fill-rule:evenodd;fill:rgb(0%,0%,0%);fill-opacity:1;" d="M 98.882812 3.328125 C 98.074219 7.457031 94.648438 11.707031 94.601562 15.675781 C 95.617188 16.324219 97.207031 16.003906 98.347656 15.988281 C 98.347656 17.101562 97.351562 18.417969 96.96875 19.304688 C 96.738281 19.847656 96.632812 20.660156 96.207031 21 C 95.679688 21.402344 93.273438 21.078125 92.460938 21.230469 C 91.472656 23.300781 85.578125 36.644531 90.183594 36.90625 C 90.761719 36.882812 91.8125 36.066406 92.003906 36.046875 C 91.859375 38.554688 89.175781 41.921875 86.960938 42.835938 C 84.214844 43.96875 82.292969 41.820312 81.6875 39.746094 C 80.0625 34.191406 85.144531 26.195312 85.890625 20.839844 C 85.511719 20.582031 85.433594 20.378906 84.746094 20.375 C 84.480469 20.566406 84.128906 20.515625 83.828125 20.6875 C 83.492188 20.875 83.441406 21.164062 82.910156 21.226562 C 82.902344 19.292969 84.1875 17.199219 85.359375 16.445312 C 86.046875 16.214844 86.734375 15.980469 87.417969 15.75 C 88.402344 13.207031 89.292969 8.996094 90.476562 5.949219 C 91.515625 5.113281 96.671875 3.476562 98.882812 3.328125 Z M 98.882812 3.328125 "/>
<path style=" stroke:none;fill-rule:evenodd;fill:rgb(0%,0%,0%);fill-opacity:1;" d="M 70.296875 19.613281 C 70.808594 20.53125 70.613281 21.839844 72.054688 21.851562 C 73.335938 20.421875 74.449219 18.472656 76.335938 17.683594 C 77.542969 17.175781 79.296875 17.550781 79.851562 18.378906 C 80.769531 19.753906 80.253906 22.441406 79.472656 23.855469 C 78.695312 25.253906 76.621094 27.660156 74.503906 27.640625 C 74.304688 27.605469 74.214844 27.285156 74.351562 27.023438 C 75.105469 26.316406 75.140625 24.242188 74.582031 23.707031 C 72.410156 22.433594 71.078125 24.925781 70.226562 26.253906 C 67.148438 31.035156 66.429688 37.75 66.25 43.382812 C 65.726562 43.667969 64.117188 43.5 63.574219 43.382812 C 61.339844 42.703125 58.988281 43.542969 57.15625 43.691406 C 57.695312 41.320312 58.773438 39.964844 59.144531 39.140625 C 61.265625 34.394531 62.382812 30.035156 63.652344 25.097656 C 63.855469 24.308594 63.488281 23.726562 63.117188 23.476562 C 62.1875 22.730469 61.265625 24.191406 60.597656 24.324219 C 60.503906 24.339844 60.492188 24.28125 60.519531 24.171875 C 61.71875 20.828125 66.6875 13.144531 70.296875 19.613281 Z M 70.296875 19.613281 "/>
</g>
</svg>
